<svg width="28" height="29" viewBox="0 0 28 29" fill="none" xmlns="http://www.w3.org/2000/svg">
<path d="M25.2355 19.9673H8.95234L9.76991 18.2787L23.3543 18.2538C23.8137 18.2538 24.2074 17.921 24.2894 17.4608L26.1707 6.78286C26.2199 6.50281 26.1461 6.21445 25.9656 5.9954C25.8764 5.8876 25.7652 5.80076 25.6396 5.74091C25.514 5.68106 25.377 5.64963 25.2383 5.6488L7.95702 5.59058L7.80937 4.8863C7.7164 4.43711 7.31718 4.10992 6.86328 4.10992H2.63867C2.38267 4.10992 2.13716 4.21305 1.95614 4.3966C1.77513 4.58016 1.67343 4.82912 1.67343 5.08871C1.67343 5.3483 1.77513 5.59725 1.95614 5.78081C2.13716 5.96437 2.38267 6.06749 2.63867 6.06749H6.08124L6.72656 9.17852L8.31523 16.9783L6.26992 20.3638C6.1637 20.5092 6.09972 20.6818 6.08523 20.8621C6.07073 21.0425 6.10629 21.2233 6.18788 21.3842C6.35195 21.7142 6.68281 21.9221 7.04921 21.9221H8.7664C8.40032 22.4152 8.20258 23.0157 8.20312 23.6329C8.20312 25.2023 9.46093 26.4778 11.0086 26.4778C12.5562 26.4778 13.8141 25.2023 13.8141 23.6329C13.8141 23.0146 13.6117 22.4129 13.2508 21.9221H17.6559C17.2898 22.4152 17.092 23.0157 17.0926 23.6329C17.0926 25.2023 18.3504 26.4778 19.898 26.4778C21.4457 26.4778 22.7035 25.2023 22.7035 23.6329C22.7035 23.0146 22.5012 22.4129 22.1402 21.9221H25.2383C25.7687 21.9221 26.2035 21.484 26.2035 20.9433C26.2019 20.684 26.0993 20.4359 25.9179 20.253C25.7366 20.0702 25.4913 19.9675 25.2355 19.9673ZM8.35898 7.52042L24.1035 7.5731L22.5613 16.3295L10.1937 16.3516L8.35898 7.52042ZM11.0086 24.5091C10.5328 24.5091 10.1445 24.1154 10.1445 23.6329C10.1445 23.1504 10.5328 22.7567 11.0086 22.7567C11.4844 22.7567 11.8726 23.1504 11.8726 23.6329C11.8726 23.8653 11.7816 24.0882 11.6196 24.2525C11.4575 24.4168 11.2378 24.5091 11.0086 24.5091ZM19.898 24.5091C19.4223 24.5091 19.034 24.1154 19.034 23.6329C19.034 23.1504 19.4223 22.7567 19.898 22.7567C20.3738 22.7567 20.7621 23.1504 20.7621 23.6329C20.7621 23.8653 20.6711 24.0882 20.509 24.2525C20.347 24.4168 20.1272 24.5091 19.898 24.5091Z" fill="black"/>
</svg>
