<svg width="17" height="13" viewBox="0 0 17 13" fill="none" xmlns="http://www.w3.org/2000/svg">
<path fill-rule="evenodd" clip-rule="evenodd" d="M6.11047 6.59199C6.16563 6.55784 6.23115 6.53074 6.30328 6.51226C6.37542 6.49377 6.45275 6.48425 6.53085 6.48425C6.60894 6.48425 6.68628 6.49377 6.75841 6.51226C6.83055 6.53074 6.89607 6.55784 6.95122 6.59199L8.3121 7.43325L9.67297 6.59199C9.78446 6.52313 9.93568 6.48444 10.0933 6.48444C10.251 6.48444 10.4022 6.52313 10.5137 6.59199C10.6252 6.66085 10.6878 6.75425 10.6878 6.85163C10.6878 6.94901 10.6252 7.04241 10.5137 7.11127L9.15166 7.9518L10.5137 8.79233C10.6252 8.86119 10.6878 8.95458 10.6878 9.05196C10.6878 9.14935 10.6252 9.24274 10.5137 9.3116C10.4022 9.38046 10.251 9.41915 10.0933 9.41915C9.93568 9.41915 9.78446 9.38046 9.67297 9.3116L8.3121 8.47034L6.95122 9.3116C6.83973 9.38046 6.68852 9.41915 6.53085 9.41915C6.37318 9.41915 6.22196 9.38046 6.11047 9.3116C5.99898 9.24274 5.93635 9.14935 5.93635 9.05196C5.93635 8.95458 5.99898 8.86119 6.11047 8.79233L7.47253 7.9518L6.11047 7.11127C6.05518 7.0772 6.01131 7.03674 5.98137 6.99218C5.95144 6.94763 5.93604 6.89987 5.93604 6.85163C5.93604 6.80339 5.95144 6.75563 5.98137 6.71108C6.01131 6.66653 6.05518 6.62606 6.11047 6.59199Z" fill="#9F9F9F"/>
<path d="M8.3125 1.35075C9.09986 1.35075 9.85497 1.54394 10.4117 1.88781C10.9685 2.23168 11.2812 2.69806 11.2812 3.18437V3.55109H5.34375V3.18437C5.34375 2.69806 5.65653 2.23168 6.21328 1.88781C6.77003 1.54394 7.52514 1.35075 8.3125 1.35075ZM12.4688 3.55109V3.18437C12.4688 2.50354 12.0309 1.8506 11.2514 1.36918C10.472 0.887766 9.41481 0.61731 8.3125 0.61731C7.21019 0.61731 6.15304 0.887766 5.37359 1.36918C4.59414 1.8506 4.15625 2.50354 4.15625 3.18437V3.55109H0V10.8855C0 11.2746 0.250223 11.6477 0.695621 11.9228C1.14102 12.1979 1.74511 12.3524 2.375 12.3524H14.25C14.8799 12.3524 15.484 12.1979 15.9294 11.9228C16.3748 11.6477 16.625 11.2746 16.625 10.8855V3.55109H12.4688ZM1.1875 4.28453H15.4375V10.8855C15.4375 11.0801 15.3124 11.2666 15.0897 11.4042C14.867 11.5417 14.5649 11.619 14.25 11.619H2.375C2.06006 11.619 1.75801 11.5417 1.53531 11.4042C1.31261 11.2666 1.1875 11.0801 1.1875 10.8855V4.28453Z" fill="#9F9F9F"/>
</svg>
