<svg width="24" height="22" viewBox="0 0 24 22" fill="none" xmlns="http://www.w3.org/2000/svg">
<path d="M22.2245 4H18.4197V1.8125C18.4197 0.847266 17.5665 0.0625 16.5172 0.0625H7.00515C5.95584 0.0625 5.10273 0.847266 5.10273 1.8125V4H1.29789C0.771752 4 0.34668 4.39102 0.34668 4.875V5.75C0.34668 5.87031 0.453691 5.96875 0.584482 5.96875H2.37989L3.11411 20.2695C3.16167 21.202 3.99992 21.9375 5.01355 21.9375H18.5088C19.5254 21.9375 20.3607 21.2047 20.4083 20.2695L21.1425 5.96875H22.9379C23.0687 5.96875 23.1757 5.87031 23.1757 5.75V4.875C23.1757 4.39102 22.7506 4 22.2245 4ZM16.2794 4H7.24295V2.03125H16.2794V4Z" fill="#B88E2F"/>
</svg>
