<svg width="127" height="28" viewBox="0 0 127 28" fill="none" xmlns="http://www.w3.org/2000/svg">
<path d="M5.922 14.6048H17.346V19.0248H5.922V14.6048ZM6.33 27.6948H0.822V3.89482H18.808V8.31482H6.33V27.6948ZM29.4492 27.9668C27.9305 27.9668 26.5705 27.6722 25.3692 27.0828C24.1905 26.4935 23.2725 25.5982 22.6152 24.3968C21.9579 23.1728 21.6292 21.6202 21.6292 19.7388V9.40282H26.9332V18.9568C26.9332 20.4755 27.2505 21.5975 27.8852 22.3228C28.5425 23.0255 29.4605 23.3768 30.6392 23.3768C31.4552 23.3768 32.1805 23.2068 32.8152 22.8668C33.4499 22.5042 33.9485 21.9602 34.3112 21.2348C34.6739 20.4868 34.8552 19.5575 34.8552 18.4468V9.40282H40.1592V27.6948H35.1272V22.6628L36.0452 24.1248C35.4332 25.3942 34.5265 26.3575 33.3252 27.0148C32.1465 27.6495 30.8545 27.9668 29.4492 27.9668ZM45.073 27.6948V9.40282H50.139V14.5708L49.425 13.0748C49.969 11.7828 50.8417 10.8082 52.043 10.1508C53.2443 9.47082 54.7063 9.13082 56.429 9.13082V14.0268C56.2023 14.0042 55.9983 13.9928 55.817 13.9928C55.6357 13.9702 55.443 13.9588 55.239 13.9588C53.7883 13.9588 52.6097 14.3782 51.703 15.2168C50.819 16.0328 50.377 17.3135 50.377 19.0588V27.6948H45.073ZM70.734 9.13082C72.1846 9.13082 73.4766 9.42549 74.61 10.0148C75.766 10.5815 76.6726 11.4655 77.33 12.6668C77.9873 13.8455 78.316 15.3642 78.316 17.2228V27.6948H73.012V18.0388C73.012 16.5655 72.6833 15.4775 72.026 14.7748C71.3913 14.0722 70.4846 13.7208 69.306 13.7208C68.4673 13.7208 67.708 13.9022 67.028 14.2648C66.3706 14.6048 65.8493 15.1375 65.464 15.8628C65.1013 16.5882 64.92 17.5175 64.92 18.6508V27.6948H59.616V9.40282H64.682V14.4688L63.73 12.9388C64.3873 11.7148 65.328 10.7742 66.552 10.1168C67.776 9.45949 69.17 9.13082 70.734 9.13082ZM83.1238 27.6948V9.40282H88.4278V27.6948H83.1238ZM85.7758 6.85282C84.8011 6.85282 84.0078 6.56949 83.3958 6.00282C82.7838 5.43616 82.4778 4.73349 82.4778 3.89482C82.4778 3.05616 82.7838 2.35349 83.3958 1.78682C84.0078 1.22016 84.8011 0.936822 85.7758 0.936822C86.7504 0.936822 87.5438 1.20882 88.1558 1.75282C88.7678 2.27416 89.0738 2.95416 89.0738 3.79282C89.0738 4.67682 88.7678 5.41349 88.1558 6.00282C87.5664 6.56949 86.7731 6.85282 85.7758 6.85282ZM93.3503 27.6948V9.40282H98.4163V14.5708L97.7023 13.0748C98.2463 11.7828 99.119 10.8082 100.32 10.1508C101.522 9.47082 102.984 9.13082 104.706 9.13082V14.0268C104.48 14.0042 104.276 13.9928 104.094 13.9928C103.913 13.9702 103.72 13.9588 103.516 13.9588C102.066 13.9588 100.887 14.3782 99.9803 15.2168C99.0963 16.0328 98.6543 17.3135 98.6543 19.0588V27.6948H93.3503ZM116.431 27.9668C114.482 27.9668 112.748 27.5588 111.229 26.7428C109.733 25.9268 108.543 24.8162 107.659 23.4108C106.798 21.9828 106.367 20.3622 106.367 18.5488C106.367 16.7128 106.798 15.0922 107.659 13.6868C108.543 12.2588 109.733 11.1482 111.229 10.3548C112.748 9.53882 114.482 9.13082 116.431 9.13082C118.358 9.13082 120.081 9.53882 121.599 10.3548C123.118 11.1482 124.308 12.2475 125.169 13.6528C126.031 15.0582 126.461 16.6902 126.461 18.5488C126.461 20.3622 126.031 21.9828 125.169 23.4108C124.308 24.8162 123.118 25.9268 121.599 26.7428C120.081 27.5588 118.358 27.9668 116.431 27.9668ZM116.431 23.6148C117.315 23.6148 118.109 23.4108 118.811 23.0028C119.514 22.5948 120.069 22.0168 120.477 21.2688C120.885 20.4982 121.089 19.5915 121.089 18.5488C121.089 17.4835 120.885 16.5768 120.477 15.8288C120.069 15.0808 119.514 14.5028 118.811 14.0948C118.109 13.6868 117.315 13.4828 116.431 13.4828C115.547 13.4828 114.754 13.6868 114.051 14.0948C113.349 14.5028 112.782 15.0808 112.351 15.8288C111.943 16.5768 111.739 17.4835 111.739 18.5488C111.739 19.5915 111.943 20.4982 112.351 21.2688C112.782 22.0168 113.349 22.5948 114.051 23.0028C114.754 23.4108 115.547 23.6148 116.431 23.6148Z" fill="black"/>
</svg>
