<svg width="20" height="13" viewBox="0 0 20 13" fill="none" xmlns="http://www.w3.org/2000/svg">
<path fill-rule="evenodd" clip-rule="evenodd" d="M10 0C4.47727 0 0 2.76533 0 6.17638C0 9.58742 4.47727 12.3528 10 12.3528C15.5227 12.3528 20 9.58742 20 6.17638C20 2.76533 15.5227 0 10 0ZM13.37 4.88888C13.5356 4.78298 13.6272 4.64115 13.6252 4.49393C13.6231 4.34671 13.5275 4.20588 13.3589 4.10178C13.1904 3.99767 12.9624 3.93862 12.724 3.93734C12.4856 3.93606 12.256 3.99266 12.0845 4.09494L10 5.38243L7.91545 4.09494C7.83159 4.04131 7.73128 3.99853 7.62037 3.96911C7.50946 3.93968 7.39016 3.92419 7.26946 3.92354C7.14875 3.92289 7.02904 3.9371 6.91731 3.96533C6.80559 3.99357 6.70409 4.03526 6.61873 4.08798C6.53338 4.1407 6.46587 4.20339 6.42016 4.27239C6.37445 4.3414 6.35145 4.41533 6.3525 4.48989C6.35355 4.56444 6.37863 4.63812 6.42627 4.70662C6.47392 4.77513 6.54317 4.83709 6.63 4.88888L8.71455 6.17638L6.63 7.46387C6.54317 7.51566 6.47392 7.57762 6.42627 7.64613C6.37863 7.71463 6.35355 7.78831 6.3525 7.86286C6.35145 7.93742 6.37445 8.01135 6.42016 8.08036C6.46587 8.14936 6.53338 8.21205 6.61873 8.26477C6.70409 8.31749 6.80559 8.35919 6.91731 8.38742C7.02904 8.41565 7.14875 8.42986 7.26946 8.42921C7.39016 8.42856 7.50946 8.41307 7.62037 8.38365C7.73128 8.35422 7.83159 8.31144 7.91545 8.25781L10 6.97032L12.0845 8.25781C12.256 8.36009 12.4856 8.41669 12.724 8.41541C12.9624 8.41413 13.1904 8.35508 13.3589 8.25097C13.5275 8.14687 13.6231 8.00604 13.6252 7.85882C13.6272 7.7116 13.5356 7.56977 13.37 7.46387L11.2855 6.17638L13.37 4.88888Z" fill="#9F9F9F"/>
</svg>
